<?xml version="1.0" encoding="UTF-8" standalone="no" ?>
<!DOCTYPE svg PUBLIC "-//W3C//DTD SVG 1.1//EN" "http://www.w3.org/Graphics/SVG/1.1/DTD/svg11.dtd">
<svg xmlns="http://www.w3.org/2000/svg" xmlns:xlink="http://www.w3.org/1999/xlink" version="1.1" width="116" height="112" viewBox="74 154 116 112" xml:space="preserve">
<desc>Created with Fabric.js 4.6.0</desc>
<defs>
</defs>
<g transform="matrix(1 0 0 1 110 210)" id="KyDdZgb77X2LxhmTmNk8Z"  >
<path style="stroke: rgb(0,0,0); stroke-width: 0; stroke-dasharray: none; stroke-linecap: butt; stroke-dashoffset: 0; stroke-linejoin: miter; stroke-miterlimit: 4; fill: rgb(49,168,247); fill-rule: nonzero; opacity: 1;" vector-effect="non-scaling-stroke"  transform=" translate(0, 0)" d="M -30 -50 L 30 -50 L 21.13924 -30 L -10 -30 L -10 -10 L 30 -10 L 19.17722 10 L -10 10 L -10 30 L 30 30 L 18.92405 50 L -30 50 z" stroke-linecap="round" />
</g>
<g transform="matrix(1 0 0 1 158.64 210)" id="gRiEKtD7YJwYPWfe3PEbG"  >
<path style="stroke: rgb(0,0,0); stroke-width: 0; stroke-dasharray: none; stroke-linecap: butt; stroke-dashoffset: 0; stroke-linejoin: miter; stroke-miterlimit: 4; fill: rgb(252,134,29); fill-rule: nonzero; opacity: 1;" vector-effect="non-scaling-stroke"  transform=" translate(0, 0)" d="M -14.77848 -50 L -23.63924 -30 L -2.2607 -30 L -2.2607 -30 C 1.87162 -30 5.22152 -26.650100000000002 5.22152 -22.517780000000002 L 5.22152 -10.000000000000002 L -14.77848 -10.000000000000002 L -24.58861 9.999999999999998 L 5.221520000000002 9.999999999999998 L 5.221520000000002 23.7836 L 5.221520000000002 23.7836 C 5.221520000000002 27.21682 2.4383400000000015 30 -0.9948799999999984 30 L -14.778479999999998 30 L -25.221519999999998 50 L 9.40596 50 L 9.40596 50 C 18.14065 50 25.221510000000002 42.91914 25.221510000000002 34.18445 L 25.221510000000002 -34.5009 L 25.221510000000002 -34.5009 C 25.221510000000002 -43.06082 18.28233 -50 9.722410000000002 -50 z" stroke-linecap="round" />
</g>
<g transform="matrix(1 0 0 1 85.6 163.45)" id="2lanry-DLsYhzkYEZbMhu"  >
<path style="stroke: rgb(0,0,0); stroke-width: 1; stroke-dasharray: none; stroke-linecap: butt; stroke-dashoffset: 0; stroke-linejoin: miter; stroke-miterlimit: 4; fill: rgb(255,255,255); fill-rule: nonzero; opacity: 1;" vector-effect="non-scaling-stroke"  transform=" translate(0, 0)" d="M 0 0 z" stroke-linecap="round" />
</g>
</svg>